<svg xmlns="http://www.w3.org/2000/svg" width="760" height="430" viewBox="0 0 760 430">
    <rect width="100%" height="100%" fill="#ffffff"/>
    <text x="380.0" y="28" text-anchor="middle" font-family="Arial" font-size="22" font-weight="700">Top IFN signature genes</text>
    <line x1="80" y1="55" x2="80" y2="360" stroke="#333"/>
    <line x1="80" y1="360" x2="740" y2="360" stroke="#333"/>
    <text x="380.0" y="425" text-anchor="middle" font-family="Arial" font-size="14">Gene</text>
    <text x="18" y="215.0" text-anchor="middle" font-family="Arial" font-size="14" transform="rotate(-90 18,215.0)">Absolute log2 fold-change / importance</text>
    <text x="80" y="39" font-family="Arial" font-size="12" fill="#555">Known ISGs are included in the synthetic signal</text>
    <rect x="86.5" y="55.0" width="30.3" height="305.0" fill="#2c7fb8"/><text x="101.7" y="49.0" font-size="11" text-anchor="middle" font-family="Arial">3.5</text><text x="101.7" y="395" font-size="12" text-anchor="middle" transform="rotate(35 101.7,395)">GENE0015</text><rect x="129.8" y="83.1" width="30.3" height="276.9" fill="#2c7fb8"/><text x="145.0" y="77.1" font-size="11" text-anchor="middle" font-family="Arial">3.2</text><text x="145.0" y="395" font-size="12" text-anchor="middle" transform="rotate(35 145.0,395)">MX1</text><rect x="173.2" y="126.5" width="30.3" height="233.5" fill="#2c7fb8"/><text x="188.3" y="120.5" font-size="11" text-anchor="middle" font-family="Arial">2.7</text><text x="188.3" y="395" font-size="12" text-anchor="middle" transform="rotate(35 188.3,395)">GENE0041</text><rect x="216.5" y="130.2" width="30.3" height="229.8" fill="#2c7fb8"/><text x="231.7" y="124.2" font-size="11" text-anchor="middle" font-family="Arial">2.6</text><text x="231.7" y="395" font-size="12" text-anchor="middle" transform="rotate(35 231.7,395)">GENE0045</text><rect x="259.8" y="140.1" width="30.3" height="219.9" fill="#2c7fb8"/><text x="275.0" y="134.1" font-size="11" text-anchor="middle" font-family="Arial">2.5</text><text x="275.0" y="395" font-size="12" text-anchor="middle" transform="rotate(35 275.0,395)">GENE0018</text><rect x="303.2" y="141.0" width="30.3" height="219.0" fill="#2c7fb8"/><text x="318.3" y="135.0" font-size="11" text-anchor="middle" font-family="Arial">2.5</text><text x="318.3" y="395" font-size="12" text-anchor="middle" transform="rotate(35 318.3,395)">RSAD2</text><rect x="346.5" y="143.0" width="30.3" height="217.0" fill="#2c7fb8"/><text x="361.7" y="137.0" font-size="11" text-anchor="middle" font-family="Arial">2.5</text><text x="361.7" y="395" font-size="12" text-anchor="middle" transform="rotate(35 361.7,395)">GENE0008</text><rect x="389.8" y="143.4" width="30.3" height="216.6" fill="#2c7fb8"/><text x="405.0" y="137.4" font-size="11" text-anchor="middle" font-family="Arial">2.5</text><text x="405.0" y="395" font-size="12" text-anchor="middle" transform="rotate(35 405.0,395)">STAT1</text><rect x="433.2" y="143.6" width="30.3" height="216.4" fill="#2c7fb8"/><text x="448.3" y="137.6" font-size="11" text-anchor="middle" font-family="Arial">2.5</text><text x="448.3" y="395" font-size="12" text-anchor="middle" transform="rotate(35 448.3,395)">GENE0036</text><rect x="476.5" y="145.6" width="30.3" height="214.4" fill="#2c7fb8"/><text x="491.7" y="139.6" font-size="11" text-anchor="middle" font-family="Arial">2.5</text><text x="491.7" y="395" font-size="12" text-anchor="middle" transform="rotate(35 491.7,395)">GENE0040</text><rect x="519.8" y="145.8" width="30.3" height="214.2" fill="#2c7fb8"/><text x="535.0" y="139.8" font-size="11" text-anchor="middle" font-family="Arial">2.5</text><text x="535.0" y="395" font-size="12" text-anchor="middle" transform="rotate(35 535.0,395)">GENE0021</text><rect x="563.2" y="148.4" width="30.3" height="211.6" fill="#2c7fb8"/><text x="578.3" y="142.4" font-size="11" text-anchor="middle" font-family="Arial">2.4</text><text x="578.3" y="395" font-size="12" text-anchor="middle" transform="rotate(35 578.3,395)">GENE0043</text><rect x="606.5" y="150.7" width="30.3" height="209.3" fill="#2c7fb8"/><text x="621.7" y="144.7" font-size="11" text-anchor="middle" font-family="Arial">2.4</text><text x="621.7" y="395" font-size="12" text-anchor="middle" transform="rotate(35 621.7,395)">GENE0003</text><rect x="649.8" y="150.9" width="30.3" height="209.1" fill="#2c7fb8"/><text x="665.0" y="144.9" font-size="11" text-anchor="middle" font-family="Arial">2.4</text><text x="665.0" y="395" font-size="12" text-anchor="middle" transform="rotate(35 665.0,395)">GENE0005</text><rect x="693.2" y="155.1" width="30.3" height="204.9" fill="#2c7fb8"/><text x="708.3" y="149.1" font-size="11" text-anchor="middle" font-family="Arial">2.4</text><text x="708.3" y="395" font-size="12" text-anchor="middle" transform="rotate(35 708.3,395)">GENE0013</text>
    </svg>